<?xml version="1.0" encoding="UTF-8" standalone="no"?>
<!-- Created with Inkscape (http://www.inkscape.org/) -->

<svg
   xmlns:dc="http://purl.org/dc/elements/1.1/"
   xmlns:cc="http://creativecommons.org/ns#"
   xmlns:rdf="http://www.w3.org/1999/02/22-rdf-syntax-ns#"
   xmlns:svg="http://www.w3.org/2000/svg"
   xmlns="http://www.w3.org/2000/svg"
   xmlns:sodipodi="http://sodipodi.sourceforge.net/DTD/sodipodi-0.dtd"
   xmlns:inkscape="http://www.inkscape.org/namespaces/inkscape"
   width="1000"
   height="1000"
   viewBox="0 0 264.58333 264.58334"
   version="1.1"
   id="svg4604"
   inkscape:export-filename="C:\Users\Daniel\Logo2017.png"
   inkscape:export-xdpi="96"
   inkscape:export-ydpi="96"
   inkscape:version="0.92.1 r15371"
   sodipodi:docname="logorsiblack.svg">
  <defs
     id="defs4598" />
  <sodipodi:namedview
     id="base"
     pagecolor="#ffffff"
     bordercolor="#666666"
     borderopacity="1.0"
     inkscape:pageopacity="0.0"
     inkscape:pageshadow="2"
     inkscape:zoom="0.35"
     inkscape:cx="253.94681"
     inkscape:cy="607.95382"
     inkscape:document-units="mm"
     inkscape:current-layer="layer1"
     showgrid="false"
     units="px"
     inkscape:window-width="1366"
     inkscape:window-height="705"
     inkscape:window-x="-8"
     inkscape:window-y="-8"
     inkscape:window-maximized="1" />
  <metadata
     id="metadata4601">
    <rdf:RDF>
      <cc:Work
         rdf:about="">
        <dc:format>image/svg+xml</dc:format>
        <dc:type
           rdf:resource="http://purl.org/dc/dcmitype/StillImage" />
        <dc:title></dc:title>
      </cc:Work>
    </rdf:RDF>
  </metadata>
  <g
     inkscape:label="Camada 1"
     inkscape:groupmode="layer"
     id="layer1"
     transform="translate(0,-32.41665)">
    <g
       id="g5162"
       transform="matrix(0.48142857,0,0,0.48142857,130.83592,114.16405)"
       style="opacity:1">
      <g
         transform="translate(-261.55952,72.571442)"
         id="g4757">
        <path
           inkscape:connector-curvature="0"
           style="fill:#000000;fill-opacity:1;stroke:none;stroke-width:2.63244653;stroke-linecap:butt;stroke-linejoin:miter;stroke-miterlimit:4;stroke-dasharray:none;stroke-opacity:1"
           d="M 264.58333,-232.16668 26.458333,-125.2502 c 0,0 -6e-6,339.93111 238.124997,422.25018 63.48116,-21.94523 110.03785,-62.19925 144.18397,-109.43984 l -80.88757,-80.88757 a 119.0625,119.0625 0 0 1 -147.48609,-16.524552 119.0625,119.0625 0 0 1 0,-168.379402 119.0625,119.0625 0 0 1 85.92808,-34.859886 119.0625,119.0625 0 0 1 82.45131,34.859886 119.0625,119.0625 0 0 1 16.49667,147.45819 l 72.12634,72.126344 C 502.70685,18.246943 502.70833,-125.2502 502.70833,-125.2502 Z"
           id="path4574" />
      </g>
      <path
         inkscape:connector-curvature="0"
         id="path3866"
         d="m 20.974471,9.3645115 a 49.784561,49.784561 0 0 0 -49.78541,49.7854105 49.784561,49.784561 0 0 0 4.77619,21.13611 l -39.05839,38.077568 c -7.10577,28.05864 11.4791,29.33158 11.4791,29.33158 h 28.96717 V 126.7451 h 21.3183305 v -18.94957 l 11.20385,-0.18235 A 49.784561,49.784561 0 0 0 20.974471,108.93128 49.784561,49.784561 0 0 0 70.75987,59.149792 49.784561,49.784561 0 0 0 20.974471,9.3643515 Z m 0,30.4481205 a 19.335208,19.335208 0 0 1 19.33728,19.33729 19.335208,19.335208 0 0 1 -19.33728,19.33339 A 19.335208,19.335208 0 0 1 1.6410715,59.149922 19.335208,19.335208 0 0 1 20.974471,39.812632 Z"
         style="fill:#000000;stroke:none;stroke-width:2.11035085" />
    </g>
  </g>
</svg>
